<mxfile host="app.diagrams.net" agent="Mozilla/5.0 (Windows NT 10.0; Win64; x64) AppleWebKit/537.36 (KHTML, like Gecko) Chrome/135.0.0.0 Safari/537.36" version="26.2.8">
  <diagram name="Página-1" id="-LAjo-7EdfOqJsbg6plm">
    <mxGraphModel grid="1" page="1" gridSize="10" guides="1" tooltips="1" connect="1" arrows="1" fold="1" pageScale="1" pageWidth="827" pageHeight="1169" math="0" shadow="0">
      <root>
        <mxCell id="0" />
        <mxCell id="1" parent="0" />
        <mxCell id="apGvU8Ji8OlcgiNRRm8c-1" value="" style="rounded=0;whiteSpace=wrap;html=1;" vertex="1" parent="1">
          <mxGeometry x="225" y="65" width="200" height="455" as="geometry" />
        </mxCell>
        <mxCell id="apGvU8Ji8OlcgiNRRm8c-2" value="Familiar" style="shape=umlActor;verticalLabelPosition=bottom;verticalAlign=top;html=1;outlineConnect=0;" vertex="1" parent="1">
          <mxGeometry x="105" y="200" width="30" height="60" as="geometry" />
        </mxCell>
        <mxCell id="apGvU8Ji8OlcgiNRRm8c-3" value="Adulto mayor" style="shape=umlActor;verticalLabelPosition=bottom;verticalAlign=top;html=1;outlineConnect=0;" vertex="1" parent="1">
          <mxGeometry x="110" y="340" width="30" height="60" as="geometry" />
        </mxCell>
        <mxCell id="apGvU8Ji8OlcgiNRRm8c-4" value="crear rutina o evento" style="ellipse;whiteSpace=wrap;html=1;" vertex="1" parent="1">
          <mxGeometry x="280" y="220" width="100" height="60" as="geometry" />
        </mxCell>
        <mxCell id="apGvU8Ji8OlcgiNRRm8c-18" value="" style="endArrow=classic;html=1;rounded=0;entryX=0.08;entryY=0.267;entryDx=0;entryDy=0;entryPerimeter=0;" edge="1" parent="1" source="apGvU8Ji8OlcgiNRRm8c-2" target="apGvU8Ji8OlcgiNRRm8c-4">
          <mxGeometry width="50" height="50" relative="1" as="geometry">
            <mxPoint x="120" y="190" as="sourcePoint" />
            <mxPoint x="170" y="140" as="targetPoint" />
          </mxGeometry>
        </mxCell>
        <mxCell id="apGvU8Ji8OlcgiNRRm8c-19" value="" style="endArrow=classic;html=1;rounded=0;entryX=0;entryY=0.5;entryDx=0;entryDy=0;" edge="1" parent="1" source="apGvU8Ji8OlcgiNRRm8c-3" target="apGvU8Ji8OlcgiNRRm8c-4">
          <mxGeometry width="50" height="50" relative="1" as="geometry">
            <mxPoint x="325" y="210" as="sourcePoint" />
            <mxPoint x="375" y="160" as="targetPoint" />
          </mxGeometry>
        </mxCell>
        <mxCell id="apGvU8Ji8OlcgiNRRm8c-20" value="enviar notificación" style="ellipse;whiteSpace=wrap;html=1;" vertex="1" parent="1">
          <mxGeometry x="280" y="420" width="100" height="60" as="geometry" />
        </mxCell>
        <mxCell id="apGvU8Ji8OlcgiNRRm8c-33" value="" style="rounded=0;whiteSpace=wrap;html=1;" vertex="1" parent="1">
          <mxGeometry x="225" y="610" width="200" height="380" as="geometry" />
        </mxCell>
        <mxCell id="apGvU8Ji8OlcgiNRRm8c-34" value="Familiar" style="shape=umlActor;verticalLabelPosition=bottom;verticalAlign=top;html=1;outlineConnect=0;" vertex="1" parent="1">
          <mxGeometry x="110" y="860" width="30" height="60" as="geometry" />
        </mxCell>
        <mxCell id="apGvU8Ji8OlcgiNRRm8c-35" value="Adulto mayor" style="shape=umlActor;verticalLabelPosition=bottom;verticalAlign=top;html=1;outlineConnect=0;" vertex="1" parent="1">
          <mxGeometry x="500" y="750" width="30" height="60" as="geometry" />
        </mxCell>
        <mxCell id="apGvU8Ji8OlcgiNRRm8c-36" value="" style="edgeStyle=orthogonalEdgeStyle;rounded=0;orthogonalLoop=1;jettySize=auto;html=1;" edge="1" parent="1" source="apGvU8Ji8OlcgiNRRm8c-37" target="apGvU8Ji8OlcgiNRRm8c-40">
          <mxGeometry relative="1" as="geometry" />
        </mxCell>
        <mxCell id="apGvU8Ji8OlcgiNRRm8c-37" value="activar botón de pánico" style="ellipse;whiteSpace=wrap;html=1;" vertex="1" parent="1">
          <mxGeometry x="280" y="760" width="100" height="60" as="geometry" />
        </mxCell>
        <mxCell id="apGvU8Ji8OlcgiNRRm8c-38" value="" style="endArrow=classic;html=1;rounded=0;exitX=0.01;exitY=0.383;exitDx=0;exitDy=0;exitPerimeter=0;" edge="1" parent="1" source="apGvU8Ji8OlcgiNRRm8c-40" target="apGvU8Ji8OlcgiNRRm8c-34">
          <mxGeometry width="50" height="50" relative="1" as="geometry">
            <mxPoint x="125" y="799" as="sourcePoint" />
            <mxPoint x="175" y="749" as="targetPoint" />
          </mxGeometry>
        </mxCell>
        <mxCell id="apGvU8Ji8OlcgiNRRm8c-39" value="" style="endArrow=classic;html=1;rounded=0;entryX=0.95;entryY=0.383;entryDx=0;entryDy=0;entryPerimeter=0;" edge="1" parent="1" source="apGvU8Ji8OlcgiNRRm8c-35" target="apGvU8Ji8OlcgiNRRm8c-37">
          <mxGeometry width="50" height="50" relative="1" as="geometry">
            <mxPoint x="330" y="819" as="sourcePoint" />
            <mxPoint x="380" y="769" as="targetPoint" />
          </mxGeometry>
        </mxCell>
        <mxCell id="apGvU8Ji8OlcgiNRRm8c-40" value="enviar&amp;nbsp;&lt;div&gt;notificación&lt;/div&gt;" style="ellipse;whiteSpace=wrap;html=1;" vertex="1" parent="1">
          <mxGeometry x="280" y="869" width="100" height="60" as="geometry" />
        </mxCell>
        <mxCell id="apGvU8Ji8OlcgiNRRm8c-42" value="" style="rounded=0;whiteSpace=wrap;html=1;" vertex="1" parent="1">
          <mxGeometry x="225" y="1049" width="200" height="281" as="geometry" />
        </mxCell>
        <mxCell id="apGvU8Ji8OlcgiNRRm8c-43" value="Familiar" style="shape=umlActor;verticalLabelPosition=bottom;verticalAlign=top;html=1;outlineConnect=0;" vertex="1" parent="1">
          <mxGeometry x="105" y="1129" width="30" height="60" as="geometry" />
        </mxCell>
        <mxCell id="apGvU8Ji8OlcgiNRRm8c-46" value="Sistema detecta caída" style="ellipse;whiteSpace=wrap;html=1;" vertex="1" parent="1">
          <mxGeometry x="280" y="1089" width="100" height="60" as="geometry" />
        </mxCell>
        <mxCell id="apGvU8Ji8OlcgiNRRm8c-47" value="" style="endArrow=classic;html=1;rounded=0;exitX=0.01;exitY=0.383;exitDx=0;exitDy=0;exitPerimeter=0;" edge="1" parent="1" source="apGvU8Ji8OlcgiNRRm8c-49" target="apGvU8Ji8OlcgiNRRm8c-43">
          <mxGeometry width="50" height="50" relative="1" as="geometry">
            <mxPoint x="125" y="1159" as="sourcePoint" />
            <mxPoint x="175" y="1109" as="targetPoint" />
          </mxGeometry>
        </mxCell>
        <mxCell id="apGvU8Ji8OlcgiNRRm8c-49" value="enviar&amp;nbsp;&lt;div&gt;notificación&lt;/div&gt;" style="ellipse;whiteSpace=wrap;html=1;" vertex="1" parent="1">
          <mxGeometry x="280" y="1229" width="100" height="60" as="geometry" />
        </mxCell>
        <mxCell id="apGvU8Ji8OlcgiNRRm8c-51" value="Administrador" style="shape=umlActor;verticalLabelPosition=bottom;verticalAlign=top;html=1;outlineConnect=0;" vertex="1" parent="1">
          <mxGeometry x="530" y="210" width="30" height="60" as="geometry" />
        </mxCell>
        <mxCell id="apGvU8Ji8OlcgiNRRm8c-55" value="" style="endArrow=classic;html=1;rounded=0;entryX=0.95;entryY=0.367;entryDx=0;entryDy=0;entryPerimeter=0;" edge="1" parent="1" source="apGvU8Ji8OlcgiNRRm8c-51" target="apGvU8Ji8OlcgiNRRm8c-4">
          <mxGeometry width="50" height="50" relative="1" as="geometry">
            <mxPoint x="500" y="310" as="sourcePoint" />
            <mxPoint x="490" y="290" as="targetPoint" />
          </mxGeometry>
        </mxCell>
        <mxCell id="apGvU8Ji8OlcgiNRRm8c-59" value="Administrador" style="shape=umlActor;verticalLabelPosition=bottom;verticalAlign=top;html=1;outlineConnect=0;" vertex="1" parent="1">
          <mxGeometry x="500" y="850" width="30" height="60" as="geometry" />
        </mxCell>
        <mxCell id="apGvU8Ji8OlcgiNRRm8c-61" value="" style="endArrow=classic;html=1;rounded=0;entryX=0.97;entryY=0.717;entryDx=0;entryDy=0;entryPerimeter=0;" edge="1" parent="1" source="apGvU8Ji8OlcgiNRRm8c-59" target="apGvU8Ji8OlcgiNRRm8c-37">
          <mxGeometry width="50" height="50" relative="1" as="geometry">
            <mxPoint x="425" y="949" as="sourcePoint" />
            <mxPoint x="475" y="899" as="targetPoint" />
          </mxGeometry>
        </mxCell>
        <mxCell id="apGvU8Ji8OlcgiNRRm8c-62" value="ocurre evento o rutina" style="ellipse;whiteSpace=wrap;html=1;" vertex="1" parent="1">
          <mxGeometry x="280" y="320" width="100" height="60" as="geometry" />
        </mxCell>
        <mxCell id="apGvU8Ji8OlcgiNRRm8c-63" value="" style="endArrow=classic;html=1;rounded=0;exitX=0.5;exitY=0.967;exitDx=0;exitDy=0;exitPerimeter=0;" edge="1" parent="1" source="apGvU8Ji8OlcgiNRRm8c-62" target="apGvU8Ji8OlcgiNRRm8c-20">
          <mxGeometry width="50" height="50" relative="1" as="geometry">
            <mxPoint x="315" y="390" as="sourcePoint" />
            <mxPoint x="365" y="340" as="targetPoint" />
          </mxGeometry>
        </mxCell>
        <mxCell id="apGvU8Ji8OlcgiNRRm8c-64" value="" style="endArrow=classic;html=1;rounded=0;entryX=0.5;entryY=0;entryDx=0;entryDy=0;exitX=0.5;exitY=1;exitDx=0;exitDy=0;" edge="1" parent="1" source="apGvU8Ji8OlcgiNRRm8c-4" target="apGvU8Ji8OlcgiNRRm8c-62">
          <mxGeometry width="50" height="50" relative="1" as="geometry">
            <mxPoint x="255" y="380" as="sourcePoint" />
            <mxPoint x="305" y="330" as="targetPoint" />
          </mxGeometry>
        </mxCell>
        <mxCell id="apGvU8Ji8OlcgiNRRm8c-65" value="&amp;lt;&amp;lt;include&amp;gt;&amp;gt;" style="html=1;verticalAlign=bottom;labelBackgroundColor=none;endArrow=open;endFill=0;dashed=1;rounded=0;exitX=0.5;exitY=0;exitDx=0;exitDy=0;" edge="1" parent="1" source="apGvU8Ji8OlcgiNRRm8c-49">
          <mxGeometry width="160" relative="1" as="geometry">
            <mxPoint x="250" y="1180" as="sourcePoint" />
            <mxPoint x="330" y="1150" as="targetPoint" />
          </mxGeometry>
        </mxCell>
        <mxCell id="XXEn5_Nm4CeIg4CM2M39-1" value="" style="rounded=0;whiteSpace=wrap;html=1;" vertex="1" parent="1">
          <mxGeometry x="225" y="1380" width="200" height="310" as="geometry" />
        </mxCell>
        <mxCell id="XXEn5_Nm4CeIg4CM2M39-2" value="Familiar" style="shape=umlActor;verticalLabelPosition=bottom;verticalAlign=top;html=1;outlineConnect=0;" vertex="1" parent="1">
          <mxGeometry x="110" y="1450" width="30" height="60" as="geometry" />
        </mxCell>
        <mxCell id="XXEn5_Nm4CeIg4CM2M39-3" value="Adulto mayor" style="shape=umlActor;verticalLabelPosition=bottom;verticalAlign=top;html=1;outlineConnect=0;" vertex="1" parent="1">
          <mxGeometry x="515" y="1409" width="30" height="60" as="geometry" />
        </mxCell>
        <mxCell id="XXEn5_Nm4CeIg4CM2M39-4" value="" style="edgeStyle=orthogonalEdgeStyle;rounded=0;orthogonalLoop=1;jettySize=auto;html=1;" edge="1" parent="1" source="XXEn5_Nm4CeIg4CM2M39-5" target="XXEn5_Nm4CeIg4CM2M39-8">
          <mxGeometry relative="1" as="geometry" />
        </mxCell>
        <mxCell id="XXEn5_Nm4CeIg4CM2M39-5" value="registrar usuario" style="ellipse;whiteSpace=wrap;html=1;" vertex="1" parent="1">
          <mxGeometry x="275" y="1439" width="100" height="60" as="geometry" />
        </mxCell>
        <mxCell id="XXEn5_Nm4CeIg4CM2M39-6" value="" style="endArrow=classic;html=1;rounded=0;entryX=0.04;entryY=0.65;entryDx=0;entryDy=0;entryPerimeter=0;" edge="1" parent="1" source="XXEn5_Nm4CeIg4CM2M39-2" target="XXEn5_Nm4CeIg4CM2M39-5">
          <mxGeometry width="50" height="50" relative="1" as="geometry">
            <mxPoint x="130" y="1509" as="sourcePoint" />
            <mxPoint x="180" y="1459" as="targetPoint" />
          </mxGeometry>
        </mxCell>
        <mxCell id="XXEn5_Nm4CeIg4CM2M39-7" value="" style="endArrow=classic;html=1;rounded=0;entryX=0.96;entryY=0.4;entryDx=0;entryDy=0;entryPerimeter=0;" edge="1" parent="1" source="XXEn5_Nm4CeIg4CM2M39-3" target="XXEn5_Nm4CeIg4CM2M39-5">
          <mxGeometry width="50" height="50" relative="1" as="geometry">
            <mxPoint x="335" y="1529" as="sourcePoint" />
            <mxPoint x="385" y="1479" as="targetPoint" />
          </mxGeometry>
        </mxCell>
        <mxCell id="XXEn5_Nm4CeIg4CM2M39-8" value="ingresar datos solicitados" style="ellipse;whiteSpace=wrap;html=1;" vertex="1" parent="1">
          <mxGeometry x="275" y="1579" width="100" height="60" as="geometry" />
        </mxCell>
        <mxCell id="XXEn5_Nm4CeIg4CM2M39-9" value="Administrador" style="shape=umlActor;verticalLabelPosition=bottom;verticalAlign=top;html=1;outlineConnect=0;" vertex="1" parent="1">
          <mxGeometry x="515" y="1549" width="30" height="60" as="geometry" />
        </mxCell>
        <mxCell id="XXEn5_Nm4CeIg4CM2M39-10" value="" style="endArrow=classic;html=1;rounded=0;entryX=0.94;entryY=0.767;entryDx=0;entryDy=0;entryPerimeter=0;" edge="1" parent="1" source="XXEn5_Nm4CeIg4CM2M39-9" target="XXEn5_Nm4CeIg4CM2M39-5">
          <mxGeometry width="50" height="50" relative="1" as="geometry">
            <mxPoint x="430" y="1659" as="sourcePoint" />
            <mxPoint x="480" y="1609" as="targetPoint" />
          </mxGeometry>
        </mxCell>
        <mxCell id="VORE1R3RCKuiHXFKoQny-1" value="iniciar sesión" style="ellipse;whiteSpace=wrap;html=1;" vertex="1" parent="1">
          <mxGeometry x="280" y="100" width="100" height="60" as="geometry" />
        </mxCell>
        <mxCell id="VORE1R3RCKuiHXFKoQny-2" value="&amp;lt;&amp;lt;include&amp;gt;&amp;gt;" style="html=1;verticalAlign=bottom;labelBackgroundColor=none;endArrow=open;endFill=0;dashed=1;rounded=0;entryX=0.5;entryY=1;entryDx=0;entryDy=0;" edge="1" parent="1" target="VORE1R3RCKuiHXFKoQny-1">
          <mxGeometry width="160" relative="1" as="geometry">
            <mxPoint x="330" y="220" as="sourcePoint" />
            <mxPoint x="480" y="290" as="targetPoint" />
          </mxGeometry>
        </mxCell>
        <mxCell id="VORE1R3RCKuiHXFKoQny-3" value="iniciar sesión" style="ellipse;whiteSpace=wrap;html=1;" vertex="1" parent="1">
          <mxGeometry x="280" y="630" width="100" height="60" as="geometry" />
        </mxCell>
        <mxCell id="VORE1R3RCKuiHXFKoQny-4" value="&amp;lt;&amp;lt;include&amp;gt;&amp;gt;" style="html=1;verticalAlign=bottom;labelBackgroundColor=none;endArrow=open;endFill=0;dashed=1;rounded=0;entryX=0.5;entryY=1;entryDx=0;entryDy=0;exitX=0.5;exitY=0;exitDx=0;exitDy=0;" edge="1" parent="1" source="apGvU8Ji8OlcgiNRRm8c-37" target="VORE1R3RCKuiHXFKoQny-3">
          <mxGeometry width="160" relative="1" as="geometry">
            <mxPoint x="330" y="750" as="sourcePoint" />
            <mxPoint x="480" y="820" as="targetPoint" />
          </mxGeometry>
        </mxCell>
        <mxCell id="VORE1R3RCKuiHXFKoQny-6" value="" style="rounded=0;whiteSpace=wrap;html=1;" vertex="1" parent="1">
          <mxGeometry x="228.75" y="1760" width="200" height="420" as="geometry" />
        </mxCell>
        <mxCell id="VORE1R3RCKuiHXFKoQny-7" value="Familiar" style="shape=umlActor;verticalLabelPosition=bottom;verticalAlign=top;html=1;outlineConnect=0;" vertex="1" parent="1">
          <mxGeometry x="111.25" y="1940" width="30" height="60" as="geometry" />
        </mxCell>
        <mxCell id="VORE1R3RCKuiHXFKoQny-8" value="Adulto mayor" style="shape=umlActor;verticalLabelPosition=bottom;verticalAlign=top;html=1;outlineConnect=0;" vertex="1" parent="1">
          <mxGeometry x="518.75" y="1899" width="30" height="60" as="geometry" />
        </mxCell>
        <mxCell id="VORE1R3RCKuiHXFKoQny-9" value="" style="edgeStyle=orthogonalEdgeStyle;rounded=0;orthogonalLoop=1;jettySize=auto;html=1;" edge="1" parent="1" source="VORE1R3RCKuiHXFKoQny-10" target="VORE1R3RCKuiHXFKoQny-13">
          <mxGeometry relative="1" as="geometry" />
        </mxCell>
        <mxCell id="VORE1R3RCKuiHXFKoQny-10" value="iniciar sesion" style="ellipse;whiteSpace=wrap;html=1;" vertex="1" parent="1">
          <mxGeometry x="278.75" y="1929" width="100" height="60" as="geometry" />
        </mxCell>
        <mxCell id="VORE1R3RCKuiHXFKoQny-11" value="" style="endArrow=classic;html=1;rounded=0;entryX=0.04;entryY=0.65;entryDx=0;entryDy=0;entryPerimeter=0;" edge="1" parent="1" source="VORE1R3RCKuiHXFKoQny-7" target="VORE1R3RCKuiHXFKoQny-10">
          <mxGeometry width="50" height="50" relative="1" as="geometry">
            <mxPoint x="133.75" y="1999" as="sourcePoint" />
            <mxPoint x="183.75" y="1949" as="targetPoint" />
          </mxGeometry>
        </mxCell>
        <mxCell id="VORE1R3RCKuiHXFKoQny-12" value="" style="endArrow=classic;html=1;rounded=0;entryX=0.96;entryY=0.4;entryDx=0;entryDy=0;entryPerimeter=0;" edge="1" parent="1" source="VORE1R3RCKuiHXFKoQny-8" target="VORE1R3RCKuiHXFKoQny-10">
          <mxGeometry width="50" height="50" relative="1" as="geometry">
            <mxPoint x="338.75" y="2019" as="sourcePoint" />
            <mxPoint x="388.75" y="1969" as="targetPoint" />
          </mxGeometry>
        </mxCell>
        <mxCell id="VORE1R3RCKuiHXFKoQny-13" value="ingresar credenciales" style="ellipse;whiteSpace=wrap;html=1;" vertex="1" parent="1">
          <mxGeometry x="278.75" y="2069" width="100" height="60" as="geometry" />
        </mxCell>
        <mxCell id="VORE1R3RCKuiHXFKoQny-14" value="Administrador" style="shape=umlActor;verticalLabelPosition=bottom;verticalAlign=top;html=1;outlineConnect=0;" vertex="1" parent="1">
          <mxGeometry x="518.75" y="2039" width="30" height="60" as="geometry" />
        </mxCell>
        <mxCell id="VORE1R3RCKuiHXFKoQny-15" value="" style="endArrow=classic;html=1;rounded=0;entryX=0.94;entryY=0.767;entryDx=0;entryDy=0;entryPerimeter=0;" edge="1" parent="1" source="VORE1R3RCKuiHXFKoQny-14" target="VORE1R3RCKuiHXFKoQny-10">
          <mxGeometry width="50" height="50" relative="1" as="geometry">
            <mxPoint x="433.75" y="2149" as="sourcePoint" />
            <mxPoint x="483.75" y="2099" as="targetPoint" />
          </mxGeometry>
        </mxCell>
        <mxCell id="VORE1R3RCKuiHXFKoQny-17" value="" style="endArrow=classic;html=1;rounded=0;entryX=1;entryY=1;entryDx=0;entryDy=0;entryPerimeter=0;exitX=0;exitY=0.5;exitDx=0;exitDy=0;" edge="1" parent="1" source="apGvU8Ji8OlcgiNRRm8c-20" target="apGvU8Ji8OlcgiNRRm8c-3">
          <mxGeometry width="50" height="50" relative="1" as="geometry">
            <mxPoint x="140" y="480" as="sourcePoint" />
            <mxPoint x="190" y="430" as="targetPoint" />
          </mxGeometry>
        </mxCell>
        <mxCell id="VORE1R3RCKuiHXFKoQny-19" value="registrar usuario" style="ellipse;whiteSpace=wrap;html=1;" vertex="1" parent="1">
          <mxGeometry x="280" y="1800" width="100" height="60" as="geometry" />
        </mxCell>
        <mxCell id="VORE1R3RCKuiHXFKoQny-20" value="&amp;lt;&amp;lt;include&amp;gt;&amp;gt;" style="html=1;verticalAlign=bottom;labelBackgroundColor=none;endArrow=open;endFill=0;dashed=1;rounded=0;entryX=0.5;entryY=1;entryDx=0;entryDy=0;" edge="1" parent="1" source="VORE1R3RCKuiHXFKoQny-10" target="VORE1R3RCKuiHXFKoQny-19">
          <mxGeometry width="160" relative="1" as="geometry">
            <mxPoint x="500" y="1833" as="sourcePoint" />
            <mxPoint x="500" y="1754" as="targetPoint" />
          </mxGeometry>
        </mxCell>
      </root>
    </mxGraphModel>
  </diagram>
</mxfile>
